<svg width="150" height="49" viewBox="0 0 150 49" fill="none" xmlns="http://www.w3.org/2000/svg">
<path d="M23.332 0C30.3281 0.000277157 36.5471 6.04049 40.8447 17.0078C43.0799 22.712 44.724 29.4894 45.6982 36.8623C45.7854 37.5208 45.8595 38.1906 45.9355 38.8584C45.9602 38.8995 45.9757 38.9376 45.9707 38.9688C45.9715 38.9739 46.5435 42.5368 46.665 48.7256H46.6006C45.7512 48.031 35.7346 40.1882 19.1309 42.459C19.3814 39.6591 19.7258 36.9346 20.1709 34.3232C20.1936 34.1899 20.22 34.0611 20.2432 33.9287C26.7552 33.7331 32.4552 34.486 36.8262 35.4736C36.8099 35.3704 36.7969 35.2639 36.7803 35.1611C35.8818 29.5857 34.5558 24.4813 32.8467 20.1191C30.0523 12.987 26.4061 8.55613 23.332 8.55566C20.258 8.55566 16.6109 12.9866 13.8164 20.1191C13.14 21.8444 12.5239 23.6843 11.9717 25.625C11.1953 28.3444 10.5434 31.2599 10.0225 34.3232C9.25148 38.8471 8.77019 43.6988 8.59277 48.7256H0C0.396473 36.797 2.42579 25.6644 5.81836 17.0078C10.1151 6.04024 16.3358 0 23.332 0ZM128.305 16.2275C131.103 16.2276 133.472 16.7563 135.412 17.8115C137.351 18.8678 138.871 20.2425 139.971 21.9355C141.07 23.6296 141.76 25.4127 142.04 27.2852L138.501 28.0029C138.3 26.4491 137.8 25.0249 137.001 23.7295C136.201 22.4353 135.082 21.3981 133.643 20.6211C132.203 19.8441 130.424 19.4561 128.305 19.4561C126.185 19.4561 124.286 19.9441 122.606 20.9199C120.927 21.8968 119.597 23.2715 118.617 25.0439C117.637 26.8175 117.148 28.9197 117.148 31.3496V31.8281C117.148 34.2589 117.637 36.3614 118.617 38.1338C119.597 39.9072 120.927 41.282 122.606 42.2578C124.286 43.2346 126.185 43.7217 128.305 43.7217C131.503 43.7216 133.943 42.8951 135.622 41.2412C137.301 39.5882 138.341 37.5656 138.741 35.1748L142.279 35.8926C141.919 37.7657 141.17 39.5481 140.03 41.2412C138.891 42.9352 137.351 44.31 135.412 45.3652C133.472 46.4204 131.103 46.9492 128.305 46.9492C125.465 46.9492 122.936 46.3409 120.717 45.126C118.498 43.911 116.748 42.1675 115.469 39.8965C114.189 37.6253 113.549 34.9564 113.549 31.8877V31.29C113.549 28.182 114.189 25.5026 115.469 23.251C116.748 21.0003 118.498 19.2667 120.717 18.0508C122.936 16.8359 125.465 16.2275 128.305 16.2275ZM95.0957 46.1133H91.0771L87.4775 34.9961H68.4043L64.8057 46.1133H60.7871L74.5225 4.27539H81.3594L95.0957 46.1133ZM113.505 20.293H109.666C107.466 20.293 105.707 20.911 104.388 22.1455C103.068 23.3811 102.408 25.3136 102.408 27.9434V46.1133H98.8096V17.0654H102.289V20.7109H103.009C103.568 19.3964 104.397 18.4404 105.497 17.8428C106.596 17.2452 108.126 16.9463 110.086 16.9463H113.505V20.293ZM69.4844 31.5293H86.3984L78.3008 6.5459H77.5811L69.4844 31.5293Z" fill="url(#paint0_linear_3836_495)"/>
<defs>
<linearGradient id="paint0_linear_3836_495" x1="67.9725" y1="28.7481" x2="68.2161" y2="59.6888" gradientUnits="userSpaceOnUse">
<stop stop-color="white"/>
<stop offset="1" stop-color="white" stop-opacity="0"/>
</linearGradient>
</defs>
</svg>
