<svg width="234" height="49" viewBox="0 0 234 49" fill="none" xmlns="http://www.w3.org/2000/svg">
<path d="M23.332 0C30.3281 0.000277157 36.5471 6.04049 40.8447 17.0078C43.0799 22.712 44.724 29.4894 45.6982 36.8623C45.7854 37.5208 45.8595 38.1906 45.9355 38.8584C45.9602 38.8995 45.9757 38.9376 45.9707 38.9688C45.9715 38.9739 46.5435 42.5368 46.665 48.7256H46.6006C45.7512 48.031 35.7346 40.1882 19.1309 42.459C19.3814 39.6591 19.7258 36.9346 20.1709 34.3232C20.1936 34.1899 20.22 34.0611 20.2432 33.9287C26.7552 33.7331 32.4552 34.486 36.8262 35.4736C36.8099 35.3704 36.7969 35.2639 36.7803 35.1611C35.8818 29.5857 34.5558 24.4813 32.8467 20.1191C30.0523 12.987 26.4061 8.55613 23.332 8.55566C20.258 8.55566 16.6109 12.9866 13.8164 20.1191C13.14 21.8444 12.5239 23.6843 11.9717 25.625C11.1953 28.3444 10.5434 31.2599 10.0225 34.3232C9.25148 38.8471 8.77019 43.6988 8.59277 48.7256H0C0.396473 36.797 2.42579 25.6644 5.81836 17.0078C10.1151 6.04024 16.3358 0 23.332 0ZM128.305 16.2275C131.103 16.2276 133.472 16.7563 135.412 17.8115C137.351 18.8678 138.871 20.2425 139.971 21.9355C141.07 23.6296 141.76 25.4127 142.04 27.2852L138.501 28.0029C138.3 26.4491 137.8 25.0249 137.001 23.7295C136.201 22.4353 135.082 21.3981 133.643 20.6211C132.203 19.8441 130.424 19.4561 128.305 19.4561C126.185 19.4561 124.286 19.9441 122.606 20.9199C120.927 21.8968 119.597 23.2715 118.617 25.0439C117.637 26.8175 117.148 28.9197 117.148 31.3496V31.8281C117.148 34.2589 117.637 36.3614 118.617 38.1338C119.597 39.9072 120.927 41.282 122.606 42.2578C124.286 43.2346 126.185 43.7217 128.305 43.7217C131.503 43.7216 133.943 42.8951 135.622 41.2412C137.301 39.5882 138.341 37.5656 138.741 35.1748L142.279 35.8926C141.919 37.7657 141.17 39.5481 140.03 41.2412C138.891 42.9352 137.351 44.31 135.412 45.3652C133.472 46.4204 131.103 46.9492 128.305 46.9492C125.465 46.9492 122.936 46.3409 120.717 45.126C118.498 43.911 116.748 42.1675 115.469 39.8965C114.189 37.6253 113.549 34.9564 113.549 31.8877V31.29C113.549 28.182 114.189 25.5026 115.469 23.251C116.748 21.0003 118.498 19.2667 120.717 18.0508C122.936 16.8359 125.465 16.2275 128.305 16.2275ZM95.0957 46.1133H91.0771L87.4775 34.9961H68.4043L64.8057 46.1133H60.7871L74.5225 4.27539H81.3594L95.0957 46.1133ZM113.505 20.293H109.666C107.466 20.293 105.707 20.911 104.388 22.1455C103.068 23.3811 102.408 25.3136 102.408 27.9434V46.1133H98.8096V17.0654H102.289V20.7109H103.009C103.568 19.3964 104.397 18.4404 105.497 17.8428C106.596 17.2452 108.126 16.9463 110.086 16.9463H113.505V20.293ZM69.4844 31.5293H86.3984L78.3008 6.5459H77.5811L69.4844 31.5293Z" fill="url(#paint0_linear_3836_495)"/>
<rect x="154" y="17" width="2" height="30" fill="white"/>
<mask id="path-3-outside-1_3836_495" maskUnits="userSpaceOnUse" x="168.672" y="23" width="65" height="18" fill="black">
<rect fill="white" x="168.672" y="23" width="65" height="18"/>
<path d="M169.672 40.3506V38.5415H171.046V26.1068H169.672V24.3206H174.939C176.908 24.3206 178.351 24.8015 179.267 25.7633C180.198 26.7098 180.664 28.2136 180.664 30.2746V34.3966C180.664 36.4576 180.198 37.969 179.267 38.9308C178.351 39.8773 176.908 40.3506 174.939 40.3506H169.672ZM172.969 38.5644H174.664C175.595 38.5644 176.359 38.4423 176.954 38.198C177.565 37.9385 178.015 37.4957 178.305 36.8698C178.595 36.2439 178.74 35.3737 178.74 34.2592V30.412C178.74 29.2975 178.595 28.4273 178.305 27.8014C178.015 27.1755 177.565 26.7404 176.954 26.4961C176.359 26.2366 175.595 26.1068 174.664 26.1068H172.969V38.5644Z"/>
<path d="M192.464 40.6712C190.709 40.6712 189.327 40.114 188.319 38.9995C187.327 37.8698 186.831 36.2439 186.831 34.1218V30.5494C186.831 28.4884 187.327 26.8854 188.319 25.7404C189.327 24.5801 190.709 24 192.464 24C194.235 24 195.617 24.5801 196.609 25.7404C197.602 26.8854 198.098 28.4884 198.098 30.5494V34.1218C198.098 36.2439 197.602 37.8698 196.609 38.9995C195.617 40.114 194.235 40.6712 192.464 40.6712ZM192.464 38.885C193.701 38.885 194.625 38.4575 195.235 37.6026C195.861 36.7477 196.174 35.5416 196.174 33.9844V30.6868C196.174 29.2212 195.861 28.038 195.235 27.1373C194.625 26.2366 193.701 25.7862 192.464 25.7862C191.228 25.7862 190.296 26.2366 189.671 27.1373C189.06 28.038 188.755 29.2212 188.755 30.6868V33.9844C188.755 35.5416 189.06 36.7477 189.671 37.6026C190.296 38.4575 191.228 38.885 192.464 38.885Z"/>
<path d="M210.013 40.6712C208.257 40.6712 206.875 40.114 205.868 38.9995C204.875 37.8698 204.379 36.2439 204.379 34.1218V30.5494C204.379 28.4884 204.875 26.8854 205.868 25.7404C206.875 24.5801 208.257 24 210.013 24C211.234 24 212.265 24.2595 213.104 24.7786C213.944 25.2977 214.577 25.9999 215.005 26.8854C215.432 27.7556 215.646 28.7327 215.646 29.8166V30.0914H213.723V29.8166C213.707 29.1143 213.57 28.4579 213.31 27.8472C213.066 27.2365 212.669 26.7404 212.12 26.3587C211.585 25.977 210.883 25.7862 210.013 25.7862C208.776 25.7862 207.845 26.2366 207.219 27.1373C206.608 28.038 206.303 29.2212 206.303 30.6868V33.9844C206.303 35.5416 206.608 36.7477 207.219 37.6026C207.845 38.4575 208.776 38.885 210.013 38.885C210.883 38.885 211.593 38.6942 212.142 38.3125C212.692 37.9308 213.089 37.4347 213.333 36.824C213.593 36.2133 213.723 35.5569 213.723 34.8546V34.5798H215.646V34.8546C215.646 35.9385 215.432 36.9232 215.005 37.8087C214.577 38.6789 213.944 39.3735 213.104 39.8926C212.265 40.4117 211.234 40.6712 210.013 40.6712Z"/>
<path d="M227.699 40.6712C226.325 40.6712 225.172 40.4193 224.241 39.9155C223.309 39.3964 222.599 38.6942 222.111 37.8087C221.638 36.9232 221.401 35.9233 221.401 34.8088V34.1218H223.325V34.6714C223.325 36.0607 223.714 37.1141 224.493 37.8316C225.271 38.5339 226.34 38.885 227.699 38.885C228.889 38.885 229.782 38.6178 230.378 38.0835C230.988 37.5492 231.294 36.8545 231.294 35.9996V35.8622C231.294 35.0225 230.981 34.3813 230.355 33.9386C229.744 33.4959 228.744 33.1753 227.355 32.9768C225.752 32.7478 224.47 32.2974 223.508 31.6257C222.561 30.9387 222.088 29.9082 222.088 28.5342V28.2594C222.088 27.4197 222.309 26.6869 222.752 26.061C223.21 25.4198 223.836 24.916 224.63 24.5496C225.424 24.1832 226.34 24 227.378 24C228.584 24 229.607 24.2214 230.447 24.6641C231.301 25.1068 231.95 25.6946 232.393 26.4274C232.851 27.1449 233.08 27.9388 233.08 28.809V29.7708H231.156V28.9464C231.156 28.2441 230.981 27.664 230.63 27.206C230.279 26.7327 229.813 26.3816 229.233 26.1526C228.653 25.9083 228.027 25.7862 227.355 25.7862C226.775 25.7862 226.225 25.8854 225.706 26.0839C225.202 26.2824 224.79 26.5724 224.47 26.9541C224.164 27.3205 224.012 27.7785 224.012 28.3281V28.4655C224.012 29.351 224.37 29.9998 225.088 30.412C225.805 30.8089 226.882 31.1143 228.317 31.328C229.996 31.5723 231.233 32.0608 232.027 32.7936C232.82 33.5264 233.217 34.5035 233.217 35.7248V35.9996C233.217 37.3889 232.744 38.5186 231.798 39.3888C230.866 40.2437 229.5 40.6712 227.699 40.6712Z"/>
</mask>
<path d="M169.672 40.3506V38.5415H171.046V26.1068H169.672V24.3206H174.939C176.908 24.3206 178.351 24.8015 179.267 25.7633C180.198 26.7098 180.664 28.2136 180.664 30.2746V34.3966C180.664 36.4576 180.198 37.969 179.267 38.9308C178.351 39.8773 176.908 40.3506 174.939 40.3506H169.672ZM172.969 38.5644H174.664C175.595 38.5644 176.359 38.4423 176.954 38.198C177.565 37.9385 178.015 37.4957 178.305 36.8698C178.595 36.2439 178.74 35.3737 178.74 34.2592V30.412C178.74 29.2975 178.595 28.4273 178.305 27.8014C178.015 27.1755 177.565 26.7404 176.954 26.4961C176.359 26.2366 175.595 26.1068 174.664 26.1068H172.969V38.5644Z" fill="white"/>
<path d="M192.464 40.6712C190.709 40.6712 189.327 40.114 188.319 38.9995C187.327 37.8698 186.831 36.2439 186.831 34.1218V30.5494C186.831 28.4884 187.327 26.8854 188.319 25.7404C189.327 24.5801 190.709 24 192.464 24C194.235 24 195.617 24.5801 196.609 25.7404C197.602 26.8854 198.098 28.4884 198.098 30.5494V34.1218C198.098 36.2439 197.602 37.8698 196.609 38.9995C195.617 40.114 194.235 40.6712 192.464 40.6712ZM192.464 38.885C193.701 38.885 194.625 38.4575 195.235 37.6026C195.861 36.7477 196.174 35.5416 196.174 33.9844V30.6868C196.174 29.2212 195.861 28.038 195.235 27.1373C194.625 26.2366 193.701 25.7862 192.464 25.7862C191.228 25.7862 190.296 26.2366 189.671 27.1373C189.06 28.038 188.755 29.2212 188.755 30.6868V33.9844C188.755 35.5416 189.06 36.7477 189.671 37.6026C190.296 38.4575 191.228 38.885 192.464 38.885Z" fill="white"/>
<path d="M210.013 40.6712C208.257 40.6712 206.875 40.114 205.868 38.9995C204.875 37.8698 204.379 36.2439 204.379 34.1218V30.5494C204.379 28.4884 204.875 26.8854 205.868 25.7404C206.875 24.5801 208.257 24 210.013 24C211.234 24 212.265 24.2595 213.104 24.7786C213.944 25.2977 214.577 25.9999 215.005 26.8854C215.432 27.7556 215.646 28.7327 215.646 29.8166V30.0914H213.723V29.8166C213.707 29.1143 213.57 28.4579 213.31 27.8472C213.066 27.2365 212.669 26.7404 212.12 26.3587C211.585 25.977 210.883 25.7862 210.013 25.7862C208.776 25.7862 207.845 26.2366 207.219 27.1373C206.608 28.038 206.303 29.2212 206.303 30.6868V33.9844C206.303 35.5416 206.608 36.7477 207.219 37.6026C207.845 38.4575 208.776 38.885 210.013 38.885C210.883 38.885 211.593 38.6942 212.142 38.3125C212.692 37.9308 213.089 37.4347 213.333 36.824C213.593 36.2133 213.723 35.5569 213.723 34.8546V34.5798H215.646V34.8546C215.646 35.9385 215.432 36.9232 215.005 37.8087C214.577 38.6789 213.944 39.3735 213.104 39.8926C212.265 40.4117 211.234 40.6712 210.013 40.6712Z" fill="white"/>
<path d="M227.699 40.6712C226.325 40.6712 225.172 40.4193 224.241 39.9155C223.309 39.3964 222.599 38.6942 222.111 37.8087C221.638 36.9232 221.401 35.9233 221.401 34.8088V34.1218H223.325V34.6714C223.325 36.0607 223.714 37.1141 224.493 37.8316C225.271 38.5339 226.34 38.885 227.699 38.885C228.889 38.885 229.782 38.6178 230.378 38.0835C230.988 37.5492 231.294 36.8545 231.294 35.9996V35.8622C231.294 35.0225 230.981 34.3813 230.355 33.9386C229.744 33.4959 228.744 33.1753 227.355 32.9768C225.752 32.7478 224.47 32.2974 223.508 31.6257C222.561 30.9387 222.088 29.9082 222.088 28.5342V28.2594C222.088 27.4197 222.309 26.6869 222.752 26.061C223.21 25.4198 223.836 24.916 224.63 24.5496C225.424 24.1832 226.34 24 227.378 24C228.584 24 229.607 24.2214 230.447 24.6641C231.301 25.1068 231.95 25.6946 232.393 26.4274C232.851 27.1449 233.08 27.9388 233.08 28.809V29.7708H231.156V28.9464C231.156 28.2441 230.981 27.664 230.63 27.206C230.279 26.7327 229.813 26.3816 229.233 26.1526C228.653 25.9083 228.027 25.7862 227.355 25.7862C226.775 25.7862 226.225 25.8854 225.706 26.0839C225.202 26.2824 224.79 26.5724 224.47 26.9541C224.164 27.3205 224.012 27.7785 224.012 28.3281V28.4655C224.012 29.351 224.37 29.9998 225.088 30.412C225.805 30.8089 226.882 31.1143 228.317 31.328C229.996 31.5723 231.233 32.0608 232.027 32.7936C232.82 33.5264 233.217 34.5035 233.217 35.7248V35.9996C233.217 37.3889 232.744 38.5186 231.798 39.3888C230.866 40.2437 229.5 40.6712 227.699 40.6712Z" fill="white"/>
<path d="M169.672 40.3506V38.5415H171.046V26.1068H169.672V24.3206H174.939C176.908 24.3206 178.351 24.8015 179.267 25.7633C180.198 26.7098 180.664 28.2136 180.664 30.2746V34.3966C180.664 36.4576 180.198 37.969 179.267 38.9308C178.351 39.8773 176.908 40.3506 174.939 40.3506H169.672ZM172.969 38.5644H174.664C175.595 38.5644 176.359 38.4423 176.954 38.198C177.565 37.9385 178.015 37.4957 178.305 36.8698C178.595 36.2439 178.74 35.3737 178.74 34.2592V30.412C178.74 29.2975 178.595 28.4273 178.305 27.8014C178.015 27.1755 177.565 26.7404 176.954 26.4961C176.359 26.2366 175.595 26.1068 174.664 26.1068H172.969V38.5644Z" stroke="white" stroke-width="0.5" mask="url(#path-3-outside-1_3836_495)"/>
<path d="M192.464 40.6712C190.709 40.6712 189.327 40.114 188.319 38.9995C187.327 37.8698 186.831 36.2439 186.831 34.1218V30.5494C186.831 28.4884 187.327 26.8854 188.319 25.7404C189.327 24.5801 190.709 24 192.464 24C194.235 24 195.617 24.5801 196.609 25.7404C197.602 26.8854 198.098 28.4884 198.098 30.5494V34.1218C198.098 36.2439 197.602 37.8698 196.609 38.9995C195.617 40.114 194.235 40.6712 192.464 40.6712ZM192.464 38.885C193.701 38.885 194.625 38.4575 195.235 37.6026C195.861 36.7477 196.174 35.5416 196.174 33.9844V30.6868C196.174 29.2212 195.861 28.038 195.235 27.1373C194.625 26.2366 193.701 25.7862 192.464 25.7862C191.228 25.7862 190.296 26.2366 189.671 27.1373C189.06 28.038 188.755 29.2212 188.755 30.6868V33.9844C188.755 35.5416 189.06 36.7477 189.671 37.6026C190.296 38.4575 191.228 38.885 192.464 38.885Z" stroke="white" stroke-width="0.5" mask="url(#path-3-outside-1_3836_495)"/>
<path d="M210.013 40.6712C208.257 40.6712 206.875 40.114 205.868 38.9995C204.875 37.8698 204.379 36.2439 204.379 34.1218V30.5494C204.379 28.4884 204.875 26.8854 205.868 25.7404C206.875 24.5801 208.257 24 210.013 24C211.234 24 212.265 24.2595 213.104 24.7786C213.944 25.2977 214.577 25.9999 215.005 26.8854C215.432 27.7556 215.646 28.7327 215.646 29.8166V30.0914H213.723V29.8166C213.707 29.1143 213.57 28.4579 213.31 27.8472C213.066 27.2365 212.669 26.7404 212.12 26.3587C211.585 25.977 210.883 25.7862 210.013 25.7862C208.776 25.7862 207.845 26.2366 207.219 27.1373C206.608 28.038 206.303 29.2212 206.303 30.6868V33.9844C206.303 35.5416 206.608 36.7477 207.219 37.6026C207.845 38.4575 208.776 38.885 210.013 38.885C210.883 38.885 211.593 38.6942 212.142 38.3125C212.692 37.9308 213.089 37.4347 213.333 36.824C213.593 36.2133 213.723 35.5569 213.723 34.8546V34.5798H215.646V34.8546C215.646 35.9385 215.432 36.9232 215.005 37.8087C214.577 38.6789 213.944 39.3735 213.104 39.8926C212.265 40.4117 211.234 40.6712 210.013 40.6712Z" stroke="white" stroke-width="0.5" mask="url(#path-3-outside-1_3836_495)"/>
<path d="M227.699 40.6712C226.325 40.6712 225.172 40.4193 224.241 39.9155C223.309 39.3964 222.599 38.6942 222.111 37.8087C221.638 36.9232 221.401 35.9233 221.401 34.8088V34.1218H223.325V34.6714C223.325 36.0607 223.714 37.1141 224.493 37.8316C225.271 38.5339 226.34 38.885 227.699 38.885C228.889 38.885 229.782 38.6178 230.378 38.0835C230.988 37.5492 231.294 36.8545 231.294 35.9996V35.8622C231.294 35.0225 230.981 34.3813 230.355 33.9386C229.744 33.4959 228.744 33.1753 227.355 32.9768C225.752 32.7478 224.47 32.2974 223.508 31.6257C222.561 30.9387 222.088 29.9082 222.088 28.5342V28.2594C222.088 27.4197 222.309 26.6869 222.752 26.061C223.21 25.4198 223.836 24.916 224.63 24.5496C225.424 24.1832 226.34 24 227.378 24C228.584 24 229.607 24.2214 230.447 24.6641C231.301 25.1068 231.95 25.6946 232.393 26.4274C232.851 27.1449 233.08 27.9388 233.08 28.809V29.7708H231.156V28.9464C231.156 28.2441 230.981 27.664 230.63 27.206C230.279 26.7327 229.813 26.3816 229.233 26.1526C228.653 25.9083 228.027 25.7862 227.355 25.7862C226.775 25.7862 226.225 25.8854 225.706 26.0839C225.202 26.2824 224.79 26.5724 224.47 26.9541C224.164 27.3205 224.012 27.7785 224.012 28.3281V28.4655C224.012 29.351 224.37 29.9998 225.088 30.412C225.805 30.8089 226.882 31.1143 228.317 31.328C229.996 31.5723 231.233 32.0608 232.027 32.7936C232.82 33.5264 233.217 34.5035 233.217 35.7248V35.9996C233.217 37.3889 232.744 38.5186 231.798 39.3888C230.866 40.2437 229.5 40.6712 227.699 40.6712Z" stroke="white" stroke-width="0.5" mask="url(#path-3-outside-1_3836_495)"/>
<defs>
<linearGradient id="paint0_linear_3836_495" x1="67.9725" y1="28.7481" x2="68.2161" y2="59.6888" gradientUnits="userSpaceOnUse">
<stop stop-color="white"/>
<stop offset="1" stop-color="white" stop-opacity="0"/>
</linearGradient>
</defs>
</svg>
